<?xml version="1.0" encoding="utf-8"?>
<!-- Generator: Adobe Illustrator 19.2.1, SVG Export Plug-In . SVG Version: 6.00 Build 0)  -->
<svg version="1.1" id="Layer_1" xmlns="http://www.w3.org/2000/svg" xmlns:xlink="http://www.w3.org/1999/xlink" x="0px" y="0px"
	 viewBox="0 0 120 33" style="enable-background:new 0 0 120 33;" xml:space="preserve">
<style type="text/css">
	.st0{fill:#3177B5;}
	.st1{fill:#F37224;}
	.st2{fill-rule:evenodd;clip-rule:evenodd;fill:#3177B5;}
	.st3{fill:#1C75BC;}
</style>
<g>
	<path class="st0" d="M4.5,1.2h26.4c0,0,1.3,4.5-0.3,11.4c0,0-0.1-1.6-1-1.6c0,0,0.9-4.1,0.1-8.3l-23.8,0c0,0-2.6,19.1,11.9,25.4
		l2-1.3c0,0,0.1,0.5,0.1,0.8c0.2,0.5,0.2,0.5,0.2,0.5s-0.3,0.7-2.3,1.5C17.8,29.6,1.6,23.9,4.5,1.2z"/>
	<path class="st1" d="M21,31.8c0,0,1.3-3.2,7.1-6.7c0,0,5.6-3.4,6.1-13.4c0,0,0.7-5.8-0.6-6.3c0,0-1.3-0.2-2.2,7.2
		c0,0-2.1,8.4-5.5,6.7c0,0-0.7-0.9,1.1-1.7c0,0,2.5-1.3,2.9-3.4c0,0,0.5-2.4-0.8-2.7c0,0-0.8,2.1-3.6,3.9c0,0-7.7,4.2-5.2,12.7
		C20.4,28.1,21.3,30.3,21,31.8z"/>
	<path class="st2" d="M13.3,9.2c1.4,1.5,2.5,3.1,2.1,5.2c-0.3,1.4-0.8,2.7-1.2,4c-0.2,0.6-0.4,1.3-0.5,2C10,18,9.8,12.1,13.3,9.2z"
		/>
	<path class="st2" d="M19.4,7.3c0.2,0.8-0.6,1.4-1.4,1.5c-0.8,0.1-1.5-0.7-1.5-1.6c0-0.9,0.6-1.4,1.5-1.4
		C18.9,5.8,19.4,6.3,19.4,7.3z"/>
	<g>
		<path class="st0" d="M21,9.8c1.3-1.4,2.7-2.8,4-4.1c0.1,0,0,0-0.1,0c-2.2,1.1-4.4,2.2-6.5,3.4c-0.4,0.2-0.7,0.2-1.2,0
			c-1.1-0.6-2.2-1.2-3.3-1.7c-1.2-0.6-2.3-1.2-3.5-1.7c1.2,1.2,2.4,2.3,3.6,3.4c2.1,2.1,2.7,4.6,1.6,7.4c-0.6,1.5-1,3.1-1.5,4.9
			c1.9-0.5,3.1-1.6,3.7-3.3c0.4,1.4,1.3,2.3,2.5,2.9c0.2-0.5,0.4-0.9,0.6-1.3c-0.3-1.2-0.7-2.4-1.1-3.5C19.1,13.8,19.3,11.6,21,9.8z
			"/>
		<path class="st0" d="M22.4,9.2c-0.4,0.5-0.8,1-1.2,1.5c-0.7,0.9-1.2,2-1,3.1c0.3,1.7,0.8,3.3,1.3,5c1.5-2.1,3.3-3.2,3.3-3.2
			c0.1,0,0.1-0.1,0.2-0.1c0-0.2,0-0.4,0-0.5C25.1,12.7,24.2,10.8,22.4,9.2z"/>
		<path class="st0" d="M19.7,21.5c-0.7-0.6-1.3-1.1-1.9-1.6c-0.6,0.5-1.2,1.1-1.9,1.7C17.2,21.9,18.5,21.9,19.7,21.5z"/>
	</g>
</g>
<path class="st1" d="M38.9,1.6c0,0,0.1,1.8,0.2,4.6c0,0.7,0,1.4,0.1,2.2c0,0.8,0,1.6,0,2.5c0,0.9,0,1.7,0,2.6c0,0.9,0,1.8,0,2.7
	c0,0.9,0,1.8,0,2.7c0,0.9,0,1.8,0,2.6c0,1.7-0.1,3.3-0.1,4.7c-0.1,2.7-0.2,4.6-0.2,4.6s-0.1-1.8-0.2-4.6c0-1.4-0.1-3-0.1-4.7
	c0-0.9,0-1.7,0-2.6c0-0.9,0-1.8,0-2.7c0-0.9,0-1.8,0-2.7c0-0.9,0-1.8,0-2.6c0-0.9,0-1.7,0-2.5c0-0.8,0-1.5,0.1-2.2
	C38.8,3.4,38.9,1.6,38.9,1.6z"/>
<g>
	<g>
		<path class="st3" d="M47.1,17.4c-1.6,0-2.9-0.5-3.9-1.6c-1-1-1.5-2.4-1.5-4c0-1.8,0.5-3.2,1.5-4.3c1-1.1,2.4-1.6,4-1.6
			c1.6,0,2.9,0.5,3.8,1.6c1,1,1.5,2.4,1.5,4.1c0,1.7-0.5,3.2-1.5,4.2C50,16.9,48.7,17.4,47.1,17.4z M47.2,8.1c-0.9,0-1.6,0.3-2.1,1
			c-0.5,0.7-0.8,1.5-0.8,2.6c0,1.1,0.3,2,0.8,2.6c0.5,0.6,1.2,1,2,1c0.9,0,1.5-0.3,2.1-0.9c0.5-0.6,0.8-1.5,0.8-2.6
			c0-1.2-0.2-2-0.7-2.7C48.7,8.4,48,8.1,47.2,8.1z"/>
		<path class="st3" d="M61.5,8.1h-3.2v9.1h-2.5V8.1h-3.2v-2h8.8V8.1z"/>
		<path class="st3" d="M70.2,16.8c-0.8,0.4-1.9,0.6-3.2,0.6c-1.7,0-3-0.5-4-1.5c-1-1-1.5-2.3-1.5-4c0-1.8,0.5-3.2,1.6-4.3
			c1.1-1.1,2.5-1.7,4.3-1.7c1.1,0,2,0.1,2.7,0.4v2.4c-0.7-0.4-1.6-0.7-2.5-0.7c-1,0-1.9,0.3-2.5,1c-0.6,0.7-1,1.5-1,2.7
			c0,1.1,0.3,1.9,0.9,2.6c0.6,0.6,1.4,1,2.4,1c1,0,1.9-0.2,2.7-0.7V16.8z"/>
		<path class="st3" d="M76.5,17.2V6.1h3.9c3.9,0,5.9,1.8,5.9,5.4c0,1.7-0.5,3.1-1.6,4.1c-1.1,1-2.5,1.5-4.3,1.5H76.5z M79,8.1v7h1.2
			c1.1,0,1.9-0.3,2.6-1c0.6-0.7,0.9-1.5,0.9-2.7c0-1.1-0.3-1.9-0.9-2.5c-0.6-0.6-1.5-0.9-2.6-0.9H79z"/>
		<path class="st3" d="M94.9,17.2h-6.7V6.1h6.4v2h-3.9v2.5h3.6v2h-3.6v2.5h4.2V17.2z"/>
		<path class="st3" d="M106.5,17.2h-2.7l-0.8-2.5H99l-0.8,2.5h-2.7l4-11.1h3L106.5,17.2z M102.4,12.8l-1.2-3.7
			c-0.1-0.3-0.1-0.6-0.2-1H101c0,0.3-0.1,0.6-0.2,1l-1.2,3.8H102.4z"/>
		<path class="st3" d="M114.5,17.2h-6.6V6.1h2.5v9.1h4.1V17.2z"/>
	</g>
</g>
<path class="st1" d="M48.5,24.3c-0.3,0.1-0.8,0.2-1.4,0.2c-0.7,0-1.2-0.2-1.7-0.6c-0.4-0.4-0.6-1-0.6-1.7c0-1.3,0.9-2.3,2.4-2.3
	c0.5,0,0.9,0.1,1.1,0.2l-0.1,0.5c-0.2-0.1-0.5-0.2-1-0.2c-1.1,0-1.8,0.7-1.8,1.8c0,1.1,0.7,1.8,1.7,1.8c0.4,0,0.6-0.1,0.8-0.1v-1.3
	H47v-0.5h1.5V24.3z"/>
<path class="st1" d="M52.6,22.9c0,1.2-0.8,1.7-1.6,1.7c-0.9,0-1.5-0.6-1.5-1.6c0-1.1,0.7-1.7,1.6-1.7C52,21.3,52.6,21.9,52.6,22.9z
	 M50.1,22.9c0,0.7,0.4,1.2,1,1.2c0.6,0,1-0.5,1-1.2c0-0.5-0.3-1.2-1-1.2C50.3,21.7,50.1,22.3,50.1,22.9z"/>
<path class="st1" d="M56.5,22.9c0,1.2-0.8,1.7-1.6,1.7c-0.9,0-1.5-0.6-1.5-1.6c0-1.1,0.7-1.7,1.6-1.7C55.9,21.3,56.5,21.9,56.5,22.9
	z M54,22.9c0,0.7,0.4,1.2,1,1.2c0.6,0,1-0.5,1-1.2c0-0.5-0.3-1.2-1-1.2C54.3,21.7,54,22.3,54,22.9z"/>
<path class="st1" d="M60.3,19.8v3.9c0,0.3,0,0.6,0,0.8h-0.5l0-0.6h0c-0.2,0.4-0.6,0.6-1.1,0.6c-0.8,0-1.4-0.7-1.4-1.6
	c0-1.1,0.7-1.7,1.4-1.7c0.5,0,0.8,0.2,1,0.5h0v-1.9H60.3z M59.8,22.6c0-0.1,0-0.2,0-0.2c-0.1-0.4-0.4-0.7-0.8-0.7
	c-0.6,0-1,0.5-1,1.2c0,0.6,0.3,1.2,0.9,1.2c0.4,0,0.7-0.3,0.8-0.7c0-0.1,0-0.2,0-0.3V22.6z"/>
<path class="st1" d="M63.9,20.1v1.9h2.1v-1.9h0.6v4.4h-0.6v-2.1h-2.1v2.1h-0.6v-4.4H63.9z"/>
<path class="st1" d="M68.3,23c0,0.8,0.5,1.1,1.1,1.1c0.4,0,0.7-0.1,0.9-0.2l0.1,0.4c-0.2,0.1-0.6,0.2-1.1,0.2c-1,0-1.6-0.6-1.6-1.6
	c0-1,0.6-1.7,1.5-1.7c1,0,1.3,0.9,1.3,1.5c0,0.1,0,0.2,0,0.3H68.3z M70,22.6c0-0.4-0.2-0.9-0.8-0.9c-0.6,0-0.8,0.5-0.9,0.9H70z"/>
<path class="st1" d="M73.4,24.5l0-0.4h0c-0.2,0.3-0.5,0.5-1,0.5c-0.6,0-1-0.5-1-0.9c0-0.8,0.7-1.2,1.9-1.2v-0.1
	c0-0.3-0.1-0.7-0.7-0.7c-0.3,0-0.6,0.1-0.8,0.2l-0.1-0.4c0.3-0.2,0.6-0.3,1-0.3c1,0,1.2,0.7,1.2,1.3v1.2c0,0.3,0,0.5,0.1,0.8H73.4z
	 M73.3,22.9c-0.6,0-1.3,0.1-1.3,0.7c0,0.4,0.3,0.6,0.5,0.6c0.4,0,0.7-0.3,0.8-0.5c0-0.1,0-0.1,0-0.2V22.9z"/>
<path class="st1" d="M75.1,19.8h0.6v4.7h-0.6V19.8z"/>
<path class="st1" d="M77.7,20.4v0.9h0.8v0.4h-0.8v1.7c0,0.4,0.1,0.6,0.4,0.6c0.2,0,0.3,0,0.3,0l0,0.4c-0.1,0-0.3,0.1-0.5,0.1
	c-0.3,0-0.5-0.1-0.6-0.2c-0.2-0.2-0.2-0.5-0.2-0.8v-1.7h-0.5v-0.4h0.5v-0.8L77.7,20.4z"/>
<path class="st1" d="M79.5,19.8h0.6v2h0c0.1-0.2,0.2-0.3,0.4-0.4c0.2-0.1,0.4-0.2,0.6-0.2c0.4,0,1.1,0.3,1.1,1.4v1.9h-0.6v-1.8
	c0-0.5-0.2-0.9-0.7-0.9c-0.4,0-0.7,0.3-0.8,0.6c0,0.1,0,0.2,0,0.3v1.9h-0.6V19.8z"/>
<path class="st1" d="M86.2,24.5l0-0.4h0c-0.2,0.3-0.5,0.5-1,0.5c-0.6,0-1-0.5-1-0.9c0-0.8,0.7-1.2,1.9-1.2v-0.1
	c0-0.3-0.1-0.7-0.7-0.7c-0.3,0-0.6,0.1-0.8,0.2l-0.1-0.4c0.3-0.2,0.6-0.3,1-0.3c1,0,1.2,0.7,1.2,1.3v1.2c0,0.3,0,0.5,0.1,0.8H86.2z
	 M86.1,22.9c-0.6,0-1.3,0.1-1.3,0.7c0,0.4,0.3,0.6,0.5,0.6c0.4,0,0.7-0.3,0.8-0.5c0-0.1,0-0.1,0-0.2V22.9z"/>
<path class="st1" d="M87.9,22.2c0-0.3,0-0.6,0-0.9h0.5l0,0.5h0c0.2-0.3,0.5-0.6,1.1-0.6c0.4,0,1.1,0.3,1.1,1.4v1.9H90v-1.8
	c0-0.5-0.2-0.9-0.7-0.9c-0.4,0-0.7,0.3-0.8,0.6c0,0.1,0,0.2,0,0.3v1.9h-0.6V22.2z"/>
<path class="st1" d="M94.6,19.8v3.9c0,0.3,0,0.6,0,0.8h-0.5l0-0.6h0c-0.2,0.4-0.6,0.6-1.1,0.6c-0.8,0-1.4-0.7-1.4-1.6
	c0-1.1,0.7-1.7,1.4-1.7c0.5,0,0.8,0.2,1,0.5h0v-1.9H94.6z M94.1,22.6c0-0.1,0-0.2,0-0.2c-0.1-0.4-0.4-0.7-0.8-0.7
	c-0.6,0-1,0.5-1,1.2c0,0.6,0.3,1.2,0.9,1.2c0.4,0,0.7-0.3,0.8-0.7c0-0.1,0-0.2,0-0.3V22.6z"/>
<path class="st1" d="M101.4,22.6c0-0.6-0.1-1.4-0.1-1.9h0c-0.2,0.5-0.3,1.1-0.6,1.7l-0.8,2.2h-0.4l-0.7-2.1
	c-0.2-0.6-0.4-1.2-0.5-1.7h0c0,0.6,0,1.3-0.1,2l-0.1,1.9h-0.5l0.3-4.4h0.7l0.8,2.1c0.2,0.5,0.3,1,0.4,1.5h0c0.1-0.4,0.3-0.9,0.5-1.5
	l0.8-2.1h0.7l0.3,4.4h-0.6L101.4,22.6z"/>
<path class="st1" d="M106.2,22.9c0,1.2-0.8,1.7-1.6,1.7c-0.9,0-1.5-0.6-1.5-1.6c0-1.1,0.7-1.7,1.6-1.7
	C105.6,21.3,106.2,21.9,106.2,22.9z M103.7,22.9c0,0.7,0.4,1.2,1,1.2c0.6,0,1-0.5,1-1.2c0-0.5-0.3-1.2-1-1.2
	C104,21.7,103.7,22.3,103.7,22.9z"/>
<path class="st1" d="M107.3,22.3c0-0.4,0-0.7,0-1h0.5l0,0.6h0c0.1-0.4,0.5-0.7,0.9-0.7c0.1,0,0.1,0,0.2,0v0.5c-0.1,0-0.1,0-0.2,0
	c-0.4,0-0.7,0.3-0.8,0.7c0,0.1,0,0.2,0,0.3v1.7h-0.6V22.3z"/>
<path class="st1" d="M110,23c0,0.8,0.5,1.1,1.1,1.1c0.4,0,0.7-0.1,0.9-0.2l0.1,0.4c-0.2,0.1-0.6,0.2-1.1,0.2c-1,0-1.6-0.6-1.6-1.6
	c0-1,0.6-1.7,1.5-1.7c1,0,1.3,0.9,1.3,1.5c0,0.1,0,0.2,0,0.3H110z M111.7,22.6c0-0.4-0.2-0.9-0.8-0.9c-0.6,0-0.8,0.5-0.9,0.9H111.7z
	"/>
<path class="st1" d="M113.2,24.2c0-0.2,0.2-0.4,0.4-0.4c0.2,0,0.4,0.2,0.4,0.4c0,0.2-0.2,0.4-0.4,0.4
	C113.3,24.6,113.2,24.4,113.2,24.2z M113.4,23.2l-0.1-3.2h0.6l-0.1,3.2H113.4z"/>
</svg>
