<?xml version="1.0" encoding="utf-8"?>
<!-- Generator: Adobe Illustrator 19.2.1, SVG Export Plug-In . SVG Version: 6.00 Build 0)  -->
<svg version="1.1" id="Layer_1" xmlns="http://www.w3.org/2000/svg" xmlns:xlink="http://www.w3.org/1999/xlink" x="0px" y="0px"
	 viewBox="0 0 25 25" style="enable-background:new 0 0 25 25;" xml:space="preserve">
<style type="text/css">
	.st0{fill:#3177B5;}
	.st1{fill:#F37224;}
	.st2{fill-rule:evenodd;clip-rule:evenodd;fill:#3177B5;}
</style>
<g>
	<path class="st0" d="M0.5,0.4h21.6c0,0,1.1,3.6-0.3,9c0,0-0.1-1.2-0.8-1.2c0,0,0.7-3.1,0.1-6.5L1.6,1.5c0,0-2.1,15.2,9.8,20.2
		l1.6-1c0,0,0,0.4,0.1,0.6c0.1,0.4,0.2,0.4,0.2,0.4s-0.2,0.6-1.9,1.2C11.5,22.9-1.8,18.4,0.5,0.4z"/>
	<path class="st1" d="M14,24.6c0,0,1.1-2.5,5.8-5.3c0,0,4.6-2.7,5-10.6c0,0,0.5-4.6-0.5-5c0,0-1.1-0.2-1.8,5.7c0,0-1.7,6.7-4.5,5.3
		c0,0-0.5-0.7,0.9-1.4c0,0,2.1-1,2.4-2.7c0,0,0.4-1.9-0.7-2.1c0,0-0.6,1.6-3,3.1c0,0-6.3,3.4-4.2,10.1C13.5,21.7,14.3,23.5,14,24.6z
		"/>
	<path class="st2" d="M7.8,6.7c1.2,1.2,2.1,2.4,1.7,4.1c-0.2,1.1-0.6,2.1-1,3.2c-0.2,0.5-0.3,1-0.4,1.6C5.1,13.7,4.9,9,7.8,6.7z"/>
	<path class="st2" d="M12.8,5.2c0.1,0.6-0.5,1.1-1.1,1.2c-0.6,0-1.2-0.6-1.2-1.2c0-0.7,0.5-1.1,1.2-1.1C12.4,4,12.8,4.4,12.8,5.2z"
		/>
	<g>
		<path class="st0" d="M14.1,7.2C15.2,6,16.3,5,17.4,3.9c0.1,0,0,0-0.1,0c-1.8,0.9-3.6,1.8-5.3,2.7c-0.4,0.2-0.6,0.2-0.9,0
			c-0.9-0.5-1.8-0.9-2.7-1.4C7.4,4.8,6.5,4.3,5.5,3.8c1,0.9,2,1.8,2.9,2.7c1.7,1.7,2.2,3.6,1.3,5.9c-0.5,1.2-0.8,2.5-1.2,3.9
			c1.6-0.4,2.6-1.2,3-2.6c0.3,1.1,1,1.9,2,2.3c0.2-0.4,0.3-0.7,0.5-1c-0.3-0.9-0.5-1.9-0.9-2.8C12.5,10.3,12.7,8.6,14.1,7.2z"/>
		<path class="st0" d="M15.2,6.7c-0.4,0.4-0.7,0.8-1,1.2c-0.5,0.7-1,1.6-0.8,2.5c0.3,1.3,0.7,2.6,1.1,4c1.2-1.7,2.7-2.6,2.7-2.6
			c0,0,0.1-0.1,0.1-0.1c0-0.1,0-0.3,0-0.4C17.4,9.4,16.7,7.9,15.2,6.7z"/>
		<path class="st0" d="M13,16.5c-0.6-0.5-1.1-0.9-1.5-1.3c-0.5,0.4-1,0.8-1.6,1.3C11,16.8,12,16.8,13,16.5z"/>
	</g>
</g>
</svg>
