<?xml version="1.0" encoding="utf-8"?>
<!-- Generator: Adobe Illustrator 19.2.1, SVG Export Plug-In . SVG Version: 6.00 Build 0)  -->
<svg version="1.1" id="Layer_1" xmlns="http://www.w3.org/2000/svg" xmlns:xlink="http://www.w3.org/1999/xlink" x="0px" y="0px"
	 viewBox="0 0 95 33" style="enable-background:new 0 0 95 33;" xml:space="preserve">
<style type="text/css">
	.st0{fill:#3177B5;}
	.st1{fill:#F37224;}
	.st2{fill-rule:evenodd;clip-rule:evenodd;fill:#3177B5;}
	.st3{fill:#1C75BC;}
</style>
<g>
	<path class="st0" d="M1.9,1h26.8c0,0,1.3,4.6-0.3,11.5c0,0-0.1-1.6-1-1.6c0,0,0.9-3.9,0.1-8.2L3.3,2.5c0,0-2.6,19.4,12.1,25.7
		l2-1.3c0,0,0.1,0.5,0.1,0.8c0.2,0.5,0.2,0.5,0.2,0.5s-0.3,0.8-2.3,1.6C15.4,29.8-1,24.1,1.9,1z"/>
	<path class="st1" d="M18.7,32c0,0,1.3-3.2,7.2-6.8c0,0,5.7-3.5,6.2-13.6c0,0,0.7-5.9-0.6-6.4c0,0-1.4-0.2-2.2,7.3
		c0,0-2.1,8.5-5.6,6.8c0,0-0.7-0.9,1.2-1.7c0,0,2.6-1.3,3-3.4c0,0,0.5-2.5-0.8-2.7c0,0-0.8,2.1-3.7,3.9c0,0-7.8,4.3-5.3,12.8
		C18,28.3,19,30.5,18.7,32z"/>
	<path class="st2" d="M10.9,9.2c1.4,1.5,2.6,3.1,2.2,5.3c-0.3,1.4-0.8,2.7-1.2,4.1c-0.2,0.7-0.4,1.3-0.5,2C7.5,18,7.3,12,10.9,9.2z"
		/>
	<path class="st2" d="M17.1,7.2c0.2,0.8-0.6,1.4-1.4,1.5c-0.8,0.1-1.5-0.7-1.5-1.6c0-0.9,0.6-1.5,1.5-1.4
		C16.6,5.7,17.1,6.2,17.1,7.2z"/>
	<g>
		<path class="st0" d="M18.7,9.7c1.3-1.5,2.8-2.8,4.1-4.2c0.1,0,0,0-0.1,0c-2.2,1.1-4.4,2.3-6.6,3.4c-0.4,0.2-0.8,0.2-1.2,0
			c-1.1-0.6-2.2-1.2-3.3-1.8C10.4,6.6,9.2,6.1,8,5.5c1.3,1.2,2.5,2.3,3.6,3.5c2.1,2.2,2.7,4.6,1.6,7.5c-0.6,1.5-1,3.2-1.5,4.9
			c1.9-0.6,3.2-1.6,3.7-3.4c0.4,1.5,1.3,2.4,2.5,2.9c0.2-0.5,0.4-0.9,0.6-1.3c-0.3-1.2-0.7-2.4-1.1-3.6C16.8,13.8,17,11.6,18.7,9.7z
			"/>
		<path class="st0" d="M20.1,9.1c-0.4,0.5-0.9,1-1.2,1.5c-0.7,0.9-1.2,2-1,3.1c0.3,1.7,0.8,3.4,1.3,5.1c1.5-2.2,3.3-3.3,3.3-3.3
			c0.1,0,0.1-0.1,0.2-0.1c0-0.2,0-0.4,0-0.5C22.8,12.6,21.9,10.7,20.1,9.1z"/>
		<path class="st0" d="M17.4,21.6c-0.7-0.6-1.3-1.2-1.9-1.7c-0.6,0.5-1.2,1.1-1.9,1.7C14.9,22,16.1,22,17.4,21.6z"/>
	</g>
</g>
<path class="st1" d="M35.6,1.1c0,0,0.1,1.5,0.2,3.8c0,0.6,0,1.2,0,1.8c0,0.6,0,1.3,0,2c0,0.7,0,1.4,0,2.2c0,0.7,0,1.5,0,2.3
	c0,0.8,0,1.5,0,2.3c0,0.7,0,1.5,0,2.2c0,1.4,0,2.7-0.1,3.9c-0.1,2.3-0.2,3.8-0.2,3.8s-0.1-1.5-0.2-3.8c0-1.1-0.1-2.5-0.1-3.9
	c0-0.7,0-1.4,0-2.2c0-0.7,0-1.5,0-2.3c0-0.8,0-1.5,0-2.3c0-0.7,0-1.5,0-2.2c0-0.7,0-1.4,0-2c0-0.6,0-1.3,0-1.8
	C35.5,2.6,35.6,1.1,35.6,1.1z"/>
<g>
	<g>
		<path class="st3" d="M43,13.9c-1.2,0-2.2-0.4-2.9-1.2C39.4,12,39,10.9,39,9.7c0-1.3,0.4-2.4,1.2-3.2c0.8-0.8,1.8-1.2,3.1-1.2
			c1.2,0,2.2,0.4,2.9,1.2c0.7,0.8,1.1,1.8,1.1,3.1c0,1.3-0.4,2.4-1.1,3.2C45.3,13.5,44.3,13.9,43,13.9z M43.1,6.9
			c-0.7,0-1.2,0.2-1.6,0.7c-0.4,0.5-0.6,1.2-0.6,2c0,0.8,0.2,1.5,0.6,2c0.4,0.5,0.9,0.7,1.5,0.7c0.7,0,1.2-0.2,1.6-0.7
			c0.4-0.5,0.6-1.1,0.6-2c0-0.9-0.2-1.5-0.6-2C44.3,7.1,43.8,6.9,43.1,6.9z"/>
		<path class="st3" d="M53.9,6.9h-2.4v6.9h-1.9V6.9h-2.4V5.4h6.7V6.9z"/>
		<path class="st3" d="M60.5,13.5c-0.6,0.3-1.4,0.4-2.4,0.4c-1.3,0-2.3-0.4-3-1.1C54.4,12,54,11,54,9.8c0-1.3,0.4-2.4,1.2-3.3
			c0.8-0.8,1.9-1.3,3.2-1.3c0.8,0,1.5,0.1,2.1,0.3v1.8C60,7,59.3,6.9,58.6,6.9c-0.8,0-1.4,0.2-1.9,0.7c-0.5,0.5-0.7,1.2-0.7,2
			c0,0.8,0.2,1.5,0.7,1.9c0.5,0.5,1.1,0.7,1.8,0.7c0.7,0,1.4-0.2,2-0.5V13.5z"/>
		<path class="st3" d="M65.3,13.8V5.4h3c3,0,4.5,1.4,4.5,4.1c0,1.3-0.4,2.3-1.2,3.1c-0.8,0.8-1.9,1.2-3.2,1.2H65.3z M67.2,6.9v5.3
			h0.9c0.8,0,1.5-0.2,1.9-0.7c0.5-0.5,0.7-1.2,0.7-2c0-0.8-0.2-1.4-0.7-1.9c-0.5-0.5-1.1-0.7-1.9-0.7H67.2z"/>
		<path class="st3" d="M79.2,13.8h-5V5.4H79v1.5H76v1.9h2.7v1.5H76v1.9h3.1V13.8z"/>
		<path class="st3" d="M88,13.8h-2.1l-0.6-1.9h-3l-0.6,1.9h-2l3.1-8.4H85L88,13.8z M84.9,10.5L84,7.6c-0.1-0.2-0.1-0.5-0.1-0.8h0
			c0,0.2-0.1,0.5-0.1,0.7l-0.9,2.8H84.9z"/>
		<path class="st3" d="M94,13.8h-5V5.4h1.9v6.9H94V13.8z"/>
	</g>
</g>
<path class="st1" d="M43.6,19.2c-0.2,0.1-0.6,0.2-1,0.2c-0.5,0-0.9-0.1-1.3-0.4c-0.3-0.3-0.5-0.7-0.5-1.2c0-1,0.7-1.7,1.8-1.7
	c0.4,0,0.7,0.1,0.8,0.2l-0.1,0.4c-0.2-0.1-0.4-0.1-0.7-0.1c-0.8,0-1.3,0.5-1.3,1.3c0,0.9,0.5,1.4,1.3,1.4c0.3,0,0.5,0,0.6-0.1v-1
	h-0.7v-0.3h1.1V19.2z"/>
<path class="st1" d="M46.7,18.1c0,0.9-0.6,1.3-1.2,1.3c-0.7,0-1.2-0.5-1.2-1.2c0-0.8,0.5-1.3,1.2-1.3C46.2,16.8,46.7,17.3,46.7,18.1
	z M44.8,18.1c0,0.5,0.3,0.9,0.7,0.9c0.4,0,0.7-0.4,0.7-0.9c0-0.4-0.2-0.9-0.7-0.9C45,17.2,44.8,17.7,44.8,18.1z"/>
<path class="st1" d="M49.7,18.1c0,0.9-0.6,1.3-1.2,1.3c-0.7,0-1.2-0.5-1.2-1.2c0-0.8,0.5-1.3,1.2-1.3C49.2,16.8,49.7,17.3,49.7,18.1
	z M47.7,18.1c0,0.5,0.3,0.9,0.7,0.9c0.4,0,0.7-0.4,0.7-0.9c0-0.4-0.2-0.9-0.7-0.9C48,17.2,47.7,17.7,47.7,18.1z"/>
<path class="st1" d="M52.5,15.8v2.9c0,0.2,0,0.5,0,0.6h-0.4l0-0.4h0c-0.1,0.3-0.4,0.5-0.8,0.5c-0.6,0-1-0.5-1-1.2
	c0-0.8,0.5-1.3,1.1-1.3c0.4,0,0.6,0.2,0.7,0.4h0v-1.4H52.5z M52.1,17.9c0-0.1,0-0.1,0-0.2c-0.1-0.3-0.3-0.5-0.6-0.5
	c-0.5,0-0.7,0.4-0.7,0.9c0,0.5,0.2,0.9,0.7,0.9c0.3,0,0.6-0.2,0.6-0.5c0-0.1,0-0.1,0-0.2V17.9z"/>
<path class="st1" d="M55.3,16v1.4h1.6V16h0.4v3.4h-0.4v-1.6h-1.6v1.6h-0.4V16H55.3z"/>
<path class="st1" d="M58.6,18.2c0,0.6,0.4,0.8,0.8,0.8c0.3,0,0.5-0.1,0.7-0.1l0.1,0.3c-0.2,0.1-0.4,0.1-0.8,0.1
	c-0.7,0-1.2-0.5-1.2-1.2c0-0.7,0.4-1.3,1.1-1.3c0.8,0,1,0.7,1,1.1c0,0.1,0,0.2,0,0.2H58.6z M59.8,17.9c0-0.3-0.1-0.7-0.6-0.7
	c-0.4,0-0.6,0.4-0.7,0.7H59.8z"/>
<path class="st1" d="M62.4,19.3l0-0.3h0c-0.1,0.2-0.4,0.4-0.7,0.4c-0.5,0-0.7-0.3-0.7-0.7c0-0.6,0.5-0.9,1.4-0.9v0
	c0-0.2-0.1-0.6-0.5-0.6c-0.2,0-0.5,0.1-0.6,0.2L61,17.1c0.2-0.1,0.5-0.2,0.8-0.2c0.7,0,0.9,0.5,0.9,1v0.9c0,0.2,0,0.4,0,0.6H62.4z
	 M62.3,18.1c-0.5,0-1,0.1-1,0.5c0,0.3,0.2,0.4,0.4,0.4c0.3,0,0.5-0.2,0.6-0.4c0,0,0-0.1,0-0.1V18.1z"/>
<path class="st1" d="M63.7,15.8h0.4v3.5h-0.4V15.8z"/>
<path class="st1" d="M65.6,16.2v0.7h0.6v0.3h-0.6v1.3c0,0.3,0.1,0.5,0.3,0.5c0.1,0,0.2,0,0.3,0l0,0.3c-0.1,0-0.2,0.1-0.4,0.1
	c-0.2,0-0.4-0.1-0.5-0.2c-0.1-0.1-0.2-0.3-0.2-0.6v-1.3h-0.4v-0.3h0.4v-0.6L65.6,16.2z"/>
<path class="st1" d="M67,15.8h0.4v1.5h0c0.1-0.1,0.2-0.2,0.3-0.3c0.1-0.1,0.3-0.1,0.4-0.1c0.3,0,0.8,0.2,0.8,1v1.4h-0.4v-1.4
	c0-0.4-0.1-0.7-0.6-0.7c-0.3,0-0.5,0.2-0.6,0.4c0,0.1,0,0.1,0,0.2v1.5H67V15.8z"/>
<path class="st1" d="M72.2,19.3l0-0.3h0c-0.1,0.2-0.4,0.4-0.7,0.4c-0.5,0-0.7-0.3-0.7-0.7c0-0.6,0.5-0.9,1.4-0.9v0
	c0-0.2-0.1-0.6-0.5-0.6c-0.2,0-0.5,0.1-0.6,0.2l-0.1-0.3c0.2-0.1,0.5-0.2,0.8-0.2c0.7,0,0.9,0.5,0.9,1v0.9c0,0.2,0,0.4,0,0.6H72.2z
	 M72.2,18.1c-0.5,0-1,0.1-1,0.5c0,0.3,0.2,0.4,0.4,0.4c0.3,0,0.5-0.2,0.6-0.4c0,0,0-0.1,0-0.1V18.1z"/>
<path class="st1" d="M73.6,17.6c0-0.2,0-0.5,0-0.7h0.4l0,0.4h0c0.1-0.2,0.4-0.5,0.8-0.5c0.3,0,0.9,0.2,0.9,1v1.4h-0.4v-1.4
	c0-0.4-0.1-0.7-0.6-0.7c-0.3,0-0.5,0.2-0.6,0.4c0,0.1,0,0.1,0,0.2v1.4h-0.4V17.6z"/>
<path class="st1" d="M78.6,15.8v2.9c0,0.2,0,0.5,0,0.6h-0.4l0-0.4h0c-0.1,0.3-0.4,0.5-0.8,0.5c-0.6,0-1-0.5-1-1.2
	c0-0.8,0.5-1.3,1.1-1.3c0.4,0,0.6,0.2,0.7,0.4h0v-1.4H78.6z M78.2,17.9c0-0.1,0-0.1,0-0.2c-0.1-0.3-0.3-0.5-0.6-0.5
	c-0.5,0-0.7,0.4-0.7,0.9c0,0.5,0.2,0.9,0.7,0.9c0.3,0,0.6-0.2,0.6-0.5c0-0.1,0-0.1,0-0.2V17.9z"/>
<path class="st1" d="M83.8,17.8c0-0.5-0.1-1,0-1.4h0c-0.1,0.4-0.3,0.8-0.4,1.3l-0.6,1.6h-0.3l-0.5-1.6c-0.2-0.5-0.3-0.9-0.4-1.3h0
	c0,0.4,0,1-0.1,1.5l-0.1,1.4h-0.4l0.2-3.4h0.6l0.6,1.6c0.1,0.4,0.3,0.8,0.3,1.1h0c0.1-0.3,0.2-0.7,0.4-1.1l0.6-1.6h0.6l0.2,3.4h-0.4
	L83.8,17.8z"/>
<path class="st1" d="M87.4,18.1c0,0.9-0.6,1.3-1.2,1.3c-0.7,0-1.2-0.5-1.2-1.2c0-0.8,0.5-1.3,1.2-1.3C86.9,16.8,87.4,17.3,87.4,18.1
	z M85.5,18.1c0,0.5,0.3,0.9,0.7,0.9c0.4,0,0.7-0.4,0.7-0.9c0-0.4-0.2-0.9-0.7-0.9C85.7,17.2,85.5,17.7,85.5,18.1z"/>
<path class="st1" d="M88.2,17.7c0-0.3,0-0.5,0-0.8h0.4l0,0.5h0c0.1-0.3,0.4-0.5,0.7-0.5c0,0,0.1,0,0.1,0v0.4c0,0-0.1,0-0.1,0
	c-0.3,0-0.5,0.2-0.6,0.6c0,0.1,0,0.1,0,0.2v1.3h-0.4V17.7z"/>
<path class="st1" d="M90.3,18.2c0,0.6,0.4,0.8,0.8,0.8c0.3,0,0.5-0.1,0.7-0.1l0.1,0.3c-0.2,0.1-0.4,0.1-0.8,0.1
	c-0.7,0-1.2-0.5-1.2-1.2c0-0.7,0.4-1.3,1.1-1.3c0.8,0,1,0.7,1,1.1c0,0.1,0,0.2,0,0.2H90.3z M91.5,17.9c0-0.3-0.1-0.7-0.6-0.7
	c-0.4,0-0.6,0.4-0.7,0.7H91.5z"/>
<path class="st1" d="M92.7,19.1c0-0.2,0.1-0.3,0.3-0.3c0.2,0,0.3,0.1,0.3,0.3c0,0.2-0.1,0.3-0.3,0.3C92.8,19.4,92.7,19.2,92.7,19.1z
	 M92.8,18.3L92.7,16h0.5l-0.1,2.4H92.8z"/>
</svg>
