<?xml version="1.0" encoding="utf-8"?>
<!-- Generator: Adobe Illustrator 19.2.1, SVG Export Plug-In . SVG Version: 6.00 Build 0)  -->
<svg version="1.1" id="Layer_1" xmlns="http://www.w3.org/2000/svg" xmlns:xlink="http://www.w3.org/1999/xlink" x="0px" y="0px"
	 viewBox="0 0 290 100" style="enable-background:new 0 0 290 100;" xml:space="preserve">
<style type="text/css">
	.st0{fill:#3177B5;}
	.st1{fill:#F37224;}
	.st2{fill-rule:evenodd;clip-rule:evenodd;fill:#3177B5;}
	.st3{fill:#1C75BC;}
</style>
<g>
	<path class="st0" d="M7.4,3.8h80.8c0,0,4,13.8-1,34.8c0,0-0.4-4.8-3.1-4.8c0,0,2.7-11.9,0.4-24.9l-73-0.6c0,0-7.9,58.6,36.6,77.8
		l6.1-4c0,0,0.2,1.6,0.4,2.4c0.5,1.5,0.7,1.6,0.7,1.6s-0.8,2.3-7,4.7C48.3,90.8-1.3,73.4,7.4,3.8z"/>
	<path class="st1" d="M58.1,97.3c0,0,4-9.7,21.8-20.4c0,0,17.3-10.5,18.8-41.1c0,0,2-17.9-1.7-19.3c0,0-4.1-0.7-6.7,22
		c0,0-6.5,25.8-17,20.5c0,0-2-2.7,3.5-5.3c0,0,7.7-3.9,9-10.3c0,0,1.6-7.4-2.6-8.2c0,0-2.3,6.3-11.1,11.9c0,0-23.7,13-15.9,38.8
		C56.1,86.1,59.1,92.8,58.1,97.3z"/>
	<path class="st2" d="M34.5,28.3c4.3,4.6,7.8,9.4,6.5,15.9c-0.8,4.2-2.4,8.2-3.6,12.2c-0.6,2-1.1,4-1.6,6C24.3,55,23.7,37,34.5,28.3
		z"/>
	<path class="st2" d="M53.3,22.3c0.5,2.3-1.9,4.3-4.3,4.5c-2.4,0.2-4.6-2.2-4.5-4.8c0-2.7,1.8-4.4,4.6-4.4
		C51.8,17.7,53.4,19.4,53.3,22.3z"/>
	<g>
		<path class="st0" d="M58.2,30c4.1-4.4,8.4-8.6,12.3-12.6c0.3-0.1,0-0.1-0.2,0.1c-6.7,3.4-13.4,6.8-20.1,10.3
			c-1.3,0.7-2.3,0.7-3.5,0c-3.3-1.8-6.6-3.6-10-5.3c-3.5-1.8-7.1-3.5-10.9-5.4c3.8,3.6,7.5,7,11,10.5c6.5,6.5,8.3,14,4.8,22.7
			c-1.8,4.7-2.9,9.6-4.5,14.9c5.9-1.7,9.6-4.8,11.3-10.2c1.3,4.4,3.9,7.2,7.7,8.9c0.6-1.4,1.2-2.7,1.9-3.9c-1-3.6-2-7.2-3.3-10.8
			C52.4,42.2,53,35.7,58.2,30z"/>
		<path class="st0" d="M62.5,28.2c-1.3,1.6-2.6,3-3.7,4.6c-2,2.8-3.7,6.2-3.1,9.5c1,5.1,2.5,10.1,4,15.3c4.5-6.5,10-9.9,10-9.9
			c0.2-0.1,0.3-0.2,0.5-0.3c0.1-0.5,0.1-1.1,0.1-1.6C70.6,38.8,67.9,32.9,62.5,28.2z"/>
		<path class="st0" d="M54.3,65.9c-2.1-1.8-4-3.5-5.8-5c-1.8,1.6-3.7,3.3-5.8,5.1C46.6,67,50.4,67.1,54.3,65.9z"/>
	</g>
</g>
<path class="st1" d="M109.1,3.9c0,0,0.3,4.6,0.5,11.4c0.1,1.7,0.1,3.6,0.1,5.5c0,2,0.1,4,0.1,6.2c0,2.1,0.1,4.4,0.1,6.6
	c0,2.2,0,4.5,0,6.8c0,2.3,0,4.6,0,6.8c0,2.2,0,4.5-0.1,6.6c-0.1,4.3-0.1,8.3-0.2,11.7c-0.2,6.8-0.5,11.4-0.5,11.4s-0.3-4.6-0.5-11.4
	c-0.1-3.4-0.2-7.4-0.2-11.7c0-2.1-0.1-4.4-0.1-6.6c0-2.2,0-4.5,0-6.8c0-2.3,0-4.6,0-6.8c0-2.2,0-4.5,0.1-6.6c0-2.1,0.1-4.2,0.1-6.2
	c0-2,0.1-3.8,0.1-5.5C108.8,8.5,109.1,3.9,109.1,3.9z"/>
<g>
	<g>
		<path class="st3" d="M131.7,42.7c-3.6,0-6.6-1.2-8.9-3.5c-2.3-2.4-3.4-5.4-3.4-9.2c0-4,1.2-7.2,3.5-9.7c2.3-2.5,5.4-3.7,9.2-3.7
			c3.6,0,6.5,1.2,8.8,3.6c2.2,2.4,3.3,5.5,3.3,9.4c0,4-1.2,7.2-3.5,9.6C138.5,41.5,135.4,42.7,131.7,42.7z M132,21.4
			c-2,0-3.6,0.8-4.8,2.3c-1.2,1.5-1.8,3.5-1.8,6c0,2.5,0.6,4.5,1.8,6c1.2,1.5,2.7,2.2,4.6,2.2c2,0,3.5-0.7,4.7-2.1
			c1.2-1.4,1.7-3.4,1.7-5.9c0-2.6-0.6-4.7-1.7-6.1C135.4,22.1,133.9,21.4,132,21.4z"/>
		<path class="st3" d="M164.6,21.6h-7.2v20.7h-5.7V21.6h-7.2v-4.6h20.2V21.6z"/>
		<path class="st3" d="M184.6,41.3c-1.9,0.9-4.3,1.3-7.2,1.3c-3.9,0-6.9-1.1-9.2-3.4c-2.2-2.3-3.3-5.3-3.3-9.1
			c0-4.1,1.3-7.3,3.8-9.9c2.5-2.5,5.8-3.8,9.7-3.8c2.5,0,4.6,0.3,6.3,0.9v5.5c-1.7-1-3.6-1.5-5.8-1.5c-2.4,0-4.3,0.7-5.8,2.2
			c-1.5,1.5-2.2,3.5-2.2,6.1c0,2.5,0.7,4.4,2.1,5.9c1.4,1.5,3.2,2.2,5.6,2.2c2.2,0,4.3-0.5,6.1-1.6V41.3z"/>
		<path class="st3" d="M199,42.2V16.9h9c9,0,13.5,4.1,13.5,12.4c0,3.9-1.2,7.1-3.7,9.5c-2.5,2.4-5.7,3.5-9.8,3.5H199z M204.7,21.6
			v16.1h2.8c2.5,0,4.4-0.7,5.8-2.2c1.4-1.5,2.1-3.5,2.1-6.1c0-2.4-0.7-4.3-2.1-5.7c-1.4-1.4-3.4-2.1-5.9-2.1H204.7z"/>
		<path class="st3" d="M240.9,42.2h-15.2V16.9h14.6v4.6h-8.9v5.6h8.3v4.6h-8.3v5.8h9.5V42.2z"/>
		<path class="st3" d="M267.4,42.2h-6.2l-1.8-5.6h-9l-1.8,5.6h-6.2l9.2-25.3h6.8L267.4,42.2z M258.1,32.2l-2.7-8.5
			c-0.2-0.6-0.3-1.4-0.4-2.3h-0.1c-0.1,0.7-0.2,1.5-0.4,2.2l-2.8,8.6H258.1z"/>
		<path class="st3" d="M285.7,42.2h-15.1V16.9h5.7v20.7h9.4V42.2z"/>
	</g>
</g>
<path class="st1" d="M133.3,58.5c-0.6,0.2-1.7,0.6-3.1,0.6c-1.5,0-2.8-0.4-3.8-1.3c-0.9-0.8-1.4-2.2-1.4-3.8c0-3,2.1-5.2,5.5-5.2
	c1.2,0,2.1,0.3,2.5,0.5l-0.3,1.1c-0.5-0.2-1.2-0.4-2.2-0.4c-2.5,0-4.1,1.5-4.1,4.1c0,2.6,1.5,4.1,3.9,4.1c0.9,0,1.4-0.1,1.7-0.3v-3
	H130v-1.1h3.3V58.5z"/>
<path class="st1" d="M142.7,55.3c0,2.7-1.9,3.9-3.6,3.9c-2,0-3.5-1.4-3.5-3.7c0-2.4,1.6-3.9,3.6-3.9C141.3,51.5,142.7,53,142.7,55.3
	z M136.9,55.3c0,1.6,0.9,2.8,2.2,2.8c1.3,0,2.2-1.2,2.2-2.8c0-1.2-0.6-2.8-2.2-2.8C137.6,52.5,136.9,54,136.9,55.3z"/>
<path class="st1" d="M151.7,55.3c0,2.7-1.9,3.9-3.6,3.9c-2,0-3.5-1.4-3.5-3.7c0-2.4,1.6-3.9,3.6-3.9C150.3,51.5,151.7,53,151.7,55.3
	z M145.9,55.3c0,1.6,0.9,2.8,2.2,2.8c1.3,0,2.2-1.2,2.2-2.8c0-1.2-0.6-2.8-2.2-2.8C146.6,52.5,145.9,54,145.9,55.3z"/>
<path class="st1" d="M160.4,48.3v8.8c0,0.6,0,1.4,0.1,1.9h-1.2l-0.1-1.3h0c-0.4,0.8-1.3,1.4-2.5,1.4c-1.8,0-3.1-1.5-3.1-3.7
	c0-2.4,1.5-3.9,3.3-3.9c1.1,0,1.9,0.5,2.2,1.1h0v-4.3H160.4z M159.1,54.7c0-0.2,0-0.4-0.1-0.6c-0.2-0.8-0.9-1.5-1.9-1.5
	c-1.4,0-2.2,1.2-2.2,2.8c0,1.5,0.7,2.7,2.1,2.7c0.9,0,1.7-0.6,1.9-1.6c0-0.2,0.1-0.4,0.1-0.6V54.7z"/>
<path class="st1" d="M168.6,48.8v4.2h4.9v-4.2h1.3V59h-1.3v-4.8h-4.9V59h-1.3V48.8H168.6z"/>
<path class="st1" d="M178.6,55.6c0,1.8,1.2,2.5,2.5,2.5c0.9,0,1.5-0.2,2-0.4l0.2,0.9c-0.5,0.2-1.3,0.5-2.4,0.5
	c-2.2,0-3.6-1.5-3.6-3.7c0-2.2,1.3-3.9,3.4-3.9c2.4,0,3,2.1,3,3.4c0,0.3,0,0.5,0,0.6H178.6z M182.4,54.6c0-0.8-0.3-2.1-1.8-2.1
	c-1.3,0-1.9,1.2-2,2.1H182.4z"/>
<path class="st1" d="M190.1,59l-0.1-0.9h0c-0.4,0.6-1.2,1.1-2.2,1.1c-1.5,0-2.2-1-2.2-2.1c0-1.8,1.6-2.7,4.4-2.7v-0.2
	c0-0.6-0.2-1.7-1.7-1.7c-0.7,0-1.4,0.2-1.9,0.5l-0.3-0.9c0.6-0.4,1.5-0.6,2.4-0.6c2.2,0,2.8,1.5,2.8,3v2.7c0,0.6,0,1.2,0.1,1.7
	H190.1z M189.9,55.3c-1.4,0-3.1,0.2-3.1,1.6c0,0.9,0.6,1.3,1.2,1.3c0.9,0,1.5-0.6,1.8-1.2c0-0.1,0.1-0.3,0.1-0.4V55.3z"/>
<path class="st1" d="M194.1,48.3h1.3V59h-1.3V48.3z"/>
<path class="st1" d="M200,49.6v2.1h1.9v1H200v3.9c0,0.9,0.3,1.4,1,1.4c0.3,0,0.6,0,0.8-0.1l0.1,1c-0.3,0.1-0.7,0.2-1.2,0.2
	c-0.6,0-1.1-0.2-1.4-0.6c-0.4-0.4-0.5-1-0.5-1.9v-4h-1.1v-1h1.1V50L200,49.6z"/>
<path class="st1" d="M204.1,48.3h1.3v4.5h0c0.2-0.4,0.5-0.7,0.9-0.9c0.4-0.2,0.9-0.4,1.4-0.4c1,0,2.5,0.6,2.5,3.1V59H209v-4.2
	c0-1.2-0.4-2.2-1.7-2.2c-0.9,0-1.5,0.6-1.8,1.3c-0.1,0.2-0.1,0.4-0.1,0.6V59h-1.3V48.3z"/>
<path class="st1" d="M219.9,59l-0.1-0.9h0c-0.4,0.6-1.2,1.1-2.2,1.1c-1.5,0-2.2-1-2.2-2.1c0-1.8,1.6-2.7,4.4-2.7v-0.2
	c0-0.6-0.2-1.7-1.7-1.7c-0.7,0-1.4,0.2-1.9,0.5l-0.3-0.9c0.6-0.4,1.5-0.6,2.4-0.6c2.2,0,2.8,1.5,2.8,3v2.7c0,0.6,0,1.2,0.1,1.7
	H219.9z M219.7,55.3c-1.4,0-3.1,0.2-3.1,1.6c0,0.9,0.6,1.3,1.2,1.3c0.9,0,1.5-0.6,1.8-1.2c0-0.1,0.1-0.3,0.1-0.4V55.3z"/>
<path class="st1" d="M223.9,53.7c0-0.8,0-1.4-0.1-2h1.2l0.1,1.2h0c0.4-0.7,1.2-1.4,2.4-1.4c1,0,2.6,0.6,2.6,3.1V59h-1.3v-4.2
	c0-1.2-0.4-2.2-1.7-2.2c-0.9,0-1.5,0.6-1.8,1.4c-0.1,0.2-0.1,0.4-0.1,0.6V59h-1.3V53.7z"/>
<path class="st1" d="M239.3,48.3v8.8c0,0.6,0,1.4,0.1,1.9h-1.2l-0.1-1.3h0c-0.4,0.8-1.3,1.4-2.5,1.4c-1.8,0-3.1-1.5-3.1-3.7
	c0-2.4,1.5-3.9,3.3-3.9c1.1,0,1.9,0.5,2.2,1.1h0v-4.3H239.3z M238,54.7c0-0.2,0-0.4-0.1-0.6c-0.2-0.8-0.9-1.5-1.9-1.5
	c-1.4,0-2.2,1.2-2.2,2.8c0,1.5,0.7,2.7,2.2,2.7c0.9,0,1.7-0.6,1.9-1.6c0-0.2,0.1-0.4,0.1-0.6V54.7z"/>
<path class="st1" d="M254.8,54.5c-0.1-1.4-0.2-3.1-0.2-4.4h0c-0.3,1.2-0.8,2.5-1.3,3.8l-1.8,4.9h-1l-1.6-4.8
	c-0.5-1.4-0.9-2.7-1.2-3.9h0c0,1.3-0.1,3-0.2,4.5l-0.3,4.3h-1.2l0.7-10.1h1.7l1.7,4.9c0.4,1.2,0.8,2.4,1,3.4h0
	c0.3-1,0.6-2.1,1.1-3.4l1.8-4.9h1.7l0.6,10.1H255L254.8,54.5z"/>
<path class="st1" d="M265.7,55.3c0,2.7-1.9,3.9-3.6,3.9c-2,0-3.5-1.4-3.5-3.7c0-2.4,1.6-3.9,3.6-3.9C264.3,51.5,265.7,53,265.7,55.3
	z M259.9,55.3c0,1.6,0.9,2.8,2.2,2.8c1.3,0,2.2-1.2,2.2-2.8c0-1.2-0.6-2.8-2.2-2.8C260.6,52.5,259.9,54,259.9,55.3z"/>
<path class="st1" d="M268.1,54c0-0.9,0-1.6-0.1-2.3h1.2l0,1.4h0.1c0.3-1,1.1-1.6,2-1.6c0.1,0,0.3,0,0.4,0v1.2c-0.1,0-0.3,0-0.5,0
	c-0.9,0-1.6,0.7-1.8,1.7c0,0.2-0.1,0.4-0.1,0.6V59h-1.3V54z"/>
<path class="st1" d="M274.4,55.6c0,1.8,1.2,2.5,2.5,2.5c0.9,0,1.5-0.2,2-0.4l0.2,0.9c-0.5,0.2-1.3,0.5-2.4,0.5
	c-2.2,0-3.6-1.5-3.6-3.7c0-2.2,1.3-3.9,3.4-3.9c2.4,0,3,2.1,3,3.4c0,0.3,0,0.5,0,0.6H274.4z M278.2,54.6c0-0.8-0.3-2.1-1.8-2.1
	c-1.3,0-1.9,1.2-2,2.1H278.2z"/>
<path class="st1" d="M281.7,58.2c0-0.5,0.4-0.9,0.9-0.9c0.5,0,0.9,0.4,0.9,0.9c0,0.5-0.3,0.9-0.9,0.9
	C282,59.1,281.7,58.7,281.7,58.2z M282,56.1l-0.2-7.2h1.4l-0.2,7.2H282z"/>
</svg>
